<?xml version="1.0" encoding="utf-8"?>
<!-- Generator: Adobe Illustrator 21.1.0, SVG Export Plug-In . SVG Version: 6.00 Build 0)  -->
<svg version="1.1" id="Layer_1" xmlns="http://www.w3.org/2000/svg" xmlns:xlink="http://www.w3.org/1999/xlink" x="0px" y="0px"
	 width="500px" height="500px" viewBox="0 0 500 500" style="enable-background:new 0 0 500 500;" xml:space="preserve">
<g id="Layer_1_1_">
	<path id="linkedin" d="M400,486.6V290.2c0,0-10.7-41.1-50-39.3c-39.3,1.8-51.8,8-69.6,29.5v206.3H179.5V175h100v45.5
		c0,0,32.1-63.4,100-58.9c61.6,4.5,108,42,117.9,124.1h2.7v200.9H400z M59.8,134.8C26.8,134.8,0,108,0,74.1
		c0-33,26.8-60.7,59.8-60.7s59.8,26.8,59.8,60.7C119.6,107.1,92.9,134.8,59.8,134.8z M109.8,486.6H9.8V175h100V486.6z"/>
</g>
</svg>
